<?xml version="1.0" encoding="UTF-8"?>
<svg version="1.1" xmlns="http://www.w3.org/2000/svg" width="180" height="180">
<path d="M0 0 C1.01449219 -0.04898438 2.02898437 -0.09796875 3.07421875 -0.1484375 C7.87456994 0.62749381 11.62408558 3.07653147 14.52879333 7.03076172 C15.57524994 8.88625606 16.48735433 10.75926164 17.3671875 12.69921875 C17.70273651 13.39915451 18.03828552 14.09909027 18.38400269 14.82023621 C20.31055645 18.91928859 21.99445354 23.07020328 23.54562378 27.32371521 C29.94309493 44.80265248 36.95053977 55.17114353 54.10687256 63.37728882 C59.74472667 65.96660009 65.43169584 68.40525497 71.19262695 70.70727539 C86.54803446 76.84606892 86.54803446 76.84606892 90.3125 84.375 C90.5859375 86.94921875 90.5859375 86.94921875 90.6875 90.0625 C90.73648438 91.07699219 90.78546875 92.09148437 90.8359375 93.13671875 C90.05975024 97.93865338 87.6093836 101.6859831 83.6557312 104.5933075 C81.79939562 105.64202318 79.92558762 106.55597572 77.984375 107.4375 C77.28423279 107.77346191 76.58409058 108.10942383 75.86273193 108.45556641 C71.77567289 110.37608957 67.64111919 112.04047872 63.38946533 113.5567627 C45.33037431 120.02217344 35.26985992 127.52929751 26.82702637 145.13574219 C24.09805413 151.04732988 21.50225526 156.99909893 19.09472656 163.04882812 C13.57057374 176.74596313 13.57057374 176.74596313 6.3125 180.375 C3.73828125 180.6484375 3.73828125 180.6484375 0.625 180.75 C-0.38949219 180.79898438 -1.40398437 180.84796875 -2.44921875 180.8984375 C-7.24956994 180.12250619 -10.99908558 177.67346853 -13.90379333 173.71923828 C-14.95024994 171.86374394 -15.86235433 169.99073836 -16.7421875 168.05078125 C-17.24551102 167.00087761 -17.24551102 167.00087761 -17.75900269 165.92976379 C-19.68555645 161.83071141 -21.36945354 157.67979672 -22.92062378 153.42628479 C-29.31809493 135.94734752 -36.32553977 125.57885647 -53.48187256 117.37271118 C-59.11972667 114.78339991 -64.80669584 112.34474503 -70.56762695 110.04272461 C-85.92303446 103.90393108 -85.92303446 103.90393108 -89.6875 96.375 C-89.9609375 93.80078125 -89.9609375 93.80078125 -90.0625 90.6875 C-90.11148438 89.67300781 -90.16046875 88.65851563 -90.2109375 87.61328125 C-89.43500619 82.81293006 -86.98596853 79.06341442 -83.03173828 76.15870667 C-81.17624394 75.11225006 -79.30323836 74.20014567 -77.36328125 73.3203125 C-76.66334549 72.98476349 -75.96340973 72.64921448 -75.24226379 72.30349731 C-71.14321141 70.37694355 -66.99229672 68.69304646 -62.73878479 67.14187622 C-45.25984752 60.74440507 -34.89135647 53.73696023 -26.68521118 36.58062744 C-24.09589991 30.94277333 -21.65724503 25.25580416 -19.35522461 19.49487305 C-11.71432884 0.38214875 -11.71432884 0.38214875 0 0 Z M-12.6875 41.375 C-15.49968007 49.05635119 -17.11931965 56.8203504 -18.6171875 64.84765625 C-20.67099757 74.99509944 -24.28047812 82.00724456 -32.4375 88.4375 C-33.67504396 89.45373968 -34.9120221 90.47066879 -36.1484375 91.48828125 C-36.74881836 91.97506348 -37.34919922 92.4618457 -37.96777344 92.96337891 C-40.39117942 94.95260852 -42.7286511 97.03194503 -45.0625 99.125 C-45.77148438 99.75921875 -46.48046875 100.3934375 -47.2109375 101.046875 C-47.69820312 101.48515625 -48.18546875 101.9234375 -48.6875 102.375 C-48.3575 103.035 -48.0275 103.695 -47.6875 104.375 C-45.48886933 105.00604505 -43.25807378 105.52585759 -41.01953125 105.99609375 C-40.34709885 106.14152115 -39.67466644 106.28694855 -38.9818573 106.43678284 C-36.8228724 106.90342277 -34.66182003 107.35918803 -32.5 107.8125 C-29.67108258 108.40603482 -26.8447877 109.01039838 -24.01953125 109.62109375 C-22.75858643 109.88591553 -21.4976416 110.1507373 -20.19848633 110.42358398 C-13.93878458 112.1198539 -10.05308144 114.6388831 -5.6875 119.375 C-4.63559287 120.48844774 -3.58349858 121.60171868 -2.53125 122.71484375 C-1.41565629 123.91312264 -0.30108804 125.11235697 0.8125 126.3125 C1.36808594 126.90740234 1.92367187 127.50230469 2.49609375 128.11523438 C5.89490081 131.77395021 9.14983345 135.51017427 12.3125 139.375 C12.9725 139.045 13.6325 138.715 14.3125 138.375 C14.94354505 136.17636933 15.46335759 133.94557378 15.93359375 131.70703125 C16.07902115 131.03459885 16.22444855 130.36216644 16.37428284 129.6693573 C16.84092277 127.5103724 17.29668803 125.34932003 17.75 123.1875 C18.34353482 120.35858258 18.94789838 117.5322877 19.55859375 114.70703125 C19.82341553 113.44608643 20.0882373 112.1851416 20.36108398 110.88598633 C22.0573539 104.62628458 24.5763831 100.74058144 29.3125 96.375 C30.42594774 95.32309287 31.53921868 94.27099858 32.65234375 93.21875 C33.85062264 92.10315629 35.04985697 90.98858804 36.25 89.875 C36.84490234 89.31941406 37.43980469 88.76382813 38.05273438 88.19140625 C41.71145021 84.79259919 45.44767427 81.53766655 49.3125 78.375 C48.9825 77.715 48.6525 77.055 48.3125 76.375 C46.11386933 75.74395495 43.88307378 75.22414241 41.64453125 74.75390625 C40.97209885 74.60847885 40.29966644 74.46305145 39.6068573 74.31321716 C37.4478724 73.84657723 35.28682003 73.39081197 33.125 72.9375 C30.29608258 72.34396518 27.4697877 71.73960162 24.64453125 71.12890625 C23.38358643 70.86408447 22.1226416 70.5992627 20.82348633 70.32641602 C14.56378458 68.6301461 10.67808144 66.1111169 6.3125 61.375 C5.26059287 60.26155226 4.20849858 59.14828132 3.15625 58.03515625 C2.04065629 56.83687736 0.92608804 55.63764303 -0.1875 54.4375 C-1.02087891 53.54514648 -1.02087891 53.54514648 -1.87109375 52.63476562 C-4.50867286 49.79548929 -7.07872067 46.934947 -9.53125 43.93359375 C-10.2428125 43.08925781 -10.954375 42.24492188 -11.6875 41.375 C-12.0175 41.375 -12.3475 41.375 -12.6875 41.375 Z " fill="#000000" transform="translate(89.6875,-0.375)"/>
</svg>
