<?xml version="1.0" encoding="UTF-8"?>
<svg version="1.1" xmlns="http://www.w3.org/2000/svg" width="24" height="24">
<path d="M0 0 C0.66 0 1.32 0 2 0 C4 3 4 3 4 7 C4.99 5.35 5.98 3.7 7 2 C8.32 3.32 9.64 4.64 11 6 C12.32 5.34 13.64 4.68 15 4 C17.88857546 14.29055007 17.88857546 14.29055007 17 19 C14.62498676 21.38089199 12.13897691 22.81933599 9 24 C4.5269345 24 1.66480905 22.47913554 -2 20 C-1.34 18.35 -0.68 16.7 0 15 C-0.99 15.33 -1.98 15.66 -3 16 C-2.69075786 13.89535207 -2.3774944 11.7912947 -2.0625 9.6875 C-1.88847656 8.51574219 -1.71445312 7.34398437 -1.53515625 6.13671875 C-1 3 -1 3 0 0 Z M6 8 C6.33 8.99 6.66 9.98 7 11 C7.66 10.01 8.32 9.02 9 8 C8.01 8 7.02 8 6 8 Z " fill="#000000" transform="translate(5,0)"/>
</svg>
